<?xml version="1.0" encoding="utf-8"?>
<!-- Generator: Adobe Illustrator 17.0.0, SVG Export Plug-In . SVG Version: 6.00 Build 0)  -->
<!DOCTYPE svg PUBLIC "-//W3C//DTD SVG 1.1//EN" "http://www.w3.org/Graphics/SVG/1.1/DTD/svg11.dtd">
<svg version="1.1" id="Layer_1" xmlns="http://www.w3.org/2000/svg" xmlns:xlink="http://www.w3.org/1999/xlink" x="0px" y="0px"
	 width="500px" height="500px" viewBox="0 0 500 500" enable-background="new 0 0 500 500" xml:space="preserve">
<g>
	<path fill="none" stroke="#41C4DB" stroke-width="5" stroke-miterlimit="10" d="M374.462,428h-13.895
		c-6.034,0-10.925-4.892-10.925-10.925c0-6.033,4.891-10.925,10.925-10.925h13.895c10.424,0,18.903-8.48,18.903-18.903V69.357
		c0-10.205-8.303-18.508-18.508-18.508H127.82c-10.205,0-18.508,8.303-18.508,18.508v317.888c0,10.424,8.48,18.903,18.903,18.903
		h15.572c2.675,0,4.85-2.175,4.85-4.85v-3.949c0-14.722,11.977-26.7,26.7-26.7h29.626c14.722,0,26.7,11.979,26.7,26.7v3.949
		c0,2.675,2.177,4.85,4.85,4.85h31.325c2.675,0,4.85-2.175,4.85-4.85v-3.949c0-14.722,11.979-26.7,26.701-26.7h16.587
		c6.034,0,10.925,4.892,10.925,10.925c0,6.033-4.891,10.925-10.925,10.925h-16.586c-2.675,0-4.851,2.175-4.851,4.85v3.949
		c0,14.722-11.977,26.7-26.7,26.7h-31.325c-14.722,0-26.7-11.979-26.7-26.7v-3.949c0-2.675-2.177-4.85-4.85-4.85h-29.626
		c-2.675,0-4.85,2.175-4.85,4.85v3.949c0,14.722-11.977,26.7-26.7,26.7h-15.572c-22.472,0-40.754-18.282-40.754-40.754V69.357
		C87.462,47.104,105.567,29,127.82,29h247.038c22.254,0,40.357,18.104,40.357,40.357v317.888
		C415.215,409.718,396.934,428,374.462,428z"/>
	<path fill="none" stroke="#40C4DB" stroke-width="4" stroke-miterlimit="10" d="M256.076,278.848H151.193
		c-6.034,0-10.925-4.892-10.925-10.925s4.891-10.925,10.925-10.925h104.883c6.034,0,10.925,4.892,10.925,10.925
		C267.001,273.956,262.11,278.848,256.076,278.848z"/>
	<path fill="none" stroke="#40C4DB" stroke-width="4" stroke-miterlimit="10" d="M256.076,336.16H151.193
		c-6.034,0-10.925-4.892-10.925-10.925s4.891-10.925,10.925-10.925h104.883c6.034,0,10.925,4.892,10.925,10.925
		S262.11,336.16,256.076,336.16z"/>
	<path fill="none" stroke="#40C4DB" stroke-width="4" stroke-miterlimit="10" d="M351.485,278.848h-39.326
		c-6.034,0-10.925-4.892-10.925-10.925s4.891-10.925,10.925-10.925h39.326c6.034,0,10.925,4.892,10.925,10.925
		C362.41,273.956,357.519,278.848,351.485,278.848z"/>
	<path fill="none" stroke="#40C4DB" stroke-width="4" stroke-miterlimit="10" d="M351.485,336.16h-39.326
		c-6.034,0-10.925-4.892-10.925-10.925s4.891-10.925,10.925-10.925h39.326c6.034,0,10.925,4.892,10.925,10.925
		S357.519,336.16,351.485,336.16z"/>
</g>
<g opacity="0.5">
	<path id="path-1_126_" fill="#42C4DB" d="M215.177,194.393h13.509c2.605,0,4.717,1.326,4.717,2.961
		c0,1.635-2.111,2.961-4.717,2.961h-0.628c-2.604,0-4.716,1.326-4.716,2.96c0,1.635,2.111,2.961,4.716,2.961h29.042
		c2.604,0,4.717,1.326,4.717,2.961c0,1.634-2.112,2.96-4.717,2.96h-34.901h-38.36c-2.604,0-4.717-1.326-4.717-2.96
		c0-1.635,2.112-2.961,4.717-2.961h8.06c2.604,0,4.717-1.326,4.717-2.961c0-1.634-2.112-2.96-4.717-2.96h-38.359
		c-2.606,0-4.717-1.326-4.717-2.961c0-1.634,2.111-2.961,4.717-2.961h9.066H215.177z"/>
	<path id="path-2_126_" fill="#41C4DB" stroke="#42C4DB" stroke-miterlimit="10" d="M313.914,191.223
		c2.973,0,5.385-1.513,5.385-3.379c0-1.867-2.412-3.38-5.385-3.38h-16.502c-2.974,0-5.384,1.513-5.384,3.38
		c0,1.866,2.41,3.379,5.384,3.379H313.914z"/>
	
		<path id="path-3_126_" fill="#42C4DC" stroke="#42C4DC" stroke-width="6" stroke-linecap="round" stroke-linejoin="round" stroke-miterlimit="10" d="
		M302.183,90.308h13.51c2.604,0,4.716,1.325,4.716,2.96s-2.111,2.96-4.716,2.96h-0.628c-2.605,0-4.717,1.326-4.717,2.961
		c0,1.635,2.111,2.961,4.717,2.961h29.041c2.605,0,4.717,1.325,4.717,2.96c0,1.636-2.111,2.961-4.717,2.961h-34.901h-38.36
		c-2.604,0-4.716-1.325-4.716-2.961c0-1.635,2.111-2.96,4.716-2.96h8.06c2.605,0,4.717-1.326,4.717-2.961
		c0-1.634-2.111-2.961-4.717-2.961h-38.36c-2.604,0-4.717-1.325-4.717-2.96s2.112-2.96,4.717-2.96h9.066H302.183z"/>
</g>
<g>
	<path fill="none" stroke="#42C4DC" stroke-width="6" stroke-linecap="round" stroke-linejoin="round" stroke-miterlimit="10" d="
		M237.116,193.126c-1.351-0.169-2.432,0.215-3.49,1.169c-6.35,5.722-6.603,14.91-0.945,21.26c3.112,3.493,7.149,5.241,11.689,6.118
		c2.336,0.451,4.44-0.206,6.621-0.685c2.451-0.539,4.621-1.64,6.613-3.145c4.702-3.551,7.68-8.19,8.769-13.987
		c1.398-7.441-0.554-13.967-5.399-19.736c-3.57-4.251-8.006-7.179-13.245-8.849c-3.396-1.083-6.905-1.451-10.507-1.253
		c-5.858,0.322-10.945,2.567-15.717,5.774c-9.532,6.405-19.069,12.802-28.631,19.161c-0.476,0.316-1.211,0.244-1.825,0.352"/>
	<path fill="none" stroke="#42C4DC" stroke-width="6" stroke-linecap="round" stroke-linejoin="round" stroke-miterlimit="10" d="
		M182.162,185.05c0.361-0.09,0.784-0.089,1.075-0.284c7.093-4.752,14.175-9.521,21.252-14.296c4.425-2.985,7.687-6.94,9.293-12.039
		c2.835-9,0.209-19.027-7.461-24.58c-3.669-2.656-7.82-3.649-12.347-3.17c-4.566,0.484-8.529,2.158-11.471,5.77
		c-2.033,2.496-3.226,5.356-3.284,8.657c-0.06,3.432,0.35,5.129,2.459,8.997c0.916,0,1.892,0,2.867,0"/>
	
		<path display="none" fill="none" stroke="#60C3A7" stroke-width="6" stroke-linecap="round" stroke-linejoin="round" stroke-miterlimit="10" d="
		M284.591,70.97c2.431,1.067,3.772,3.184,5.092,5.312c2.387,3.85,3.676,8.004,3.823,12.571c0.222,6.879-1.723,12.939-6.324,18.094
		c-0.508,0.569-1.147,1.02-1.725,1.526"/>
	
		<path display="none" fill="none" stroke="#60C3A7" stroke-width="6" stroke-linecap="round" stroke-linejoin="round" stroke-miterlimit="10" d="
		M269.308,105.113c-1.538-2.374-2.041-5.074-2.251-7.806c-0.323-4.202,0.156-8.324,1.82-12.245
		c2.465-5.808,6.542-10.183,12.05-13.185c1.041-0.567,2.363-0.618,3.555-0.907"/>
	<path fill="none" stroke="#42C4DC" stroke-width="6" stroke-linecap="round" stroke-linejoin="round" stroke-miterlimit="10" d="
		M255.976,147.818c-0.968,4.933,0.428,8.87,4.642,11.841c3.596,2.535,7.514,4.248,11.838,4.696
		c6.884,0.714,13.31-0.744,18.957-4.949c0.736-0.548,1.396-1.202,2.063-1.837c1.282-1.22,1.714-2.737,0.947-4.316
		c-0.91-1.873-1.874-3.776-3.147-5.407c-3.435-4.399-7.882-7.388-13.293-8.926c-5.094-1.448-10.159-1.381-15.171,0.247
		c-3.275,1.063-5.116,3.604-6.288,6.702c-0.214,0.565-0.366,1.154-0.547,1.732"/>
	<path fill="none" stroke="#42C4DC" stroke-width="6" stroke-linecap="round" stroke-linejoin="round" stroke-miterlimit="10" d="
		M327.189,116.819c-0.975,0-1.951,0-3.167,0c-6.612,4.424-13.797,9.24-21.554,14.405c-0.484,0.322-1.076,0.481-1.618,0.716"/>
	<path fill="none" stroke="#42C4DC" stroke-width="6" stroke-linecap="round" stroke-linejoin="round" stroke-miterlimit="10" d="
		M251.099,118.065c-0.686,0.415-1.39,0.806-2.057,1.25c-6.652,4.438-13.309,8.868-19.932,13.349c-0.767,0.519-1.49,0.809-2.4,0.747
		c-0.683-0.047-1.372-0.009-2.059-0.009"/>
	<path fill="none" stroke="#42C4DC" stroke-width="6" stroke-linecap="round" stroke-linejoin="round" stroke-miterlimit="10" d="
		M307.028,174.645c-0.361,0.163-0.754,0.278-1.079,0.495c-7.051,4.688-14.095,9.387-21.141,14.084
		c-0.434,0.289-0.867,0.578-1.301,0.867"/>
	<path fill="none" stroke="#42C4DC" stroke-width="6" stroke-linecap="round" stroke-linejoin="round" stroke-miterlimit="10" d="
		M276.245,151.178c-3.764,0.323-7.317-0.906-10.942-1.546c-4.646-0.821-9.251-1.87-13.883-2.771
		c-0.842-0.164-1.731-0.09-2.598-0.127"/>
	<path fill="none" stroke="#42C4DC" stroke-width="6" stroke-linecap="round" stroke-linejoin="round" stroke-miterlimit="10" d="
		M280.147,89.179c0.291,4.276-0.904,8.346-1.739,12.464c-0.477,2.354-1.092,4.684-1.49,7.05c-0.458,2.73-0.745,5.488-1.106,8.234"/>
	<path fill="none" stroke="#42C4DC" stroke-width="6" stroke-linecap="round" stroke-linejoin="round" stroke-miterlimit="10" d="
		M277.383,103.748c4.896,1.142,8.88-0.113,11.999-4.219c2.661-3.503,4.512-7.358,5.113-11.664c0.958-6.854-0.271-13.328-4.274-19.12
		c-0.522-0.755-1.152-1.438-1.763-2.127c-1.174-1.325-2.674-1.81-4.28-1.099c-1.904,0.843-3.84,1.739-5.515,2.954
		c-4.518,3.277-7.663,7.615-9.392,12.968c-1.628,5.039-1.74,10.103-0.292,15.17c0.947,3.311,3.421,5.24,6.475,6.522
		c0.557,0.234,1.141,0.407,1.712,0.608"/>
</g>
<g>
	<g>
		<path fill="none" stroke="#42C4DC" stroke-miterlimit="10" d="M134.25,128"/>
	</g>
</g>
<g>
	<g>
		<path fill="none" stroke="#42C4DC" stroke-miterlimit="10" d="M201,105.25"/>
	</g>
</g>
<g>
	<g>
		<path fill="none" stroke="#DBF0F5" stroke-miterlimit="10" d="M186.25,105.5"/>
	</g>
</g>
<g>
	<g>
		<path fill="none" stroke="#DBF0F5" stroke-miterlimit="10" d="M186.25,107.5"/>
	</g>
</g>
<g>
	<g>
		<path fill="none" stroke="#DBF0F5" stroke-miterlimit="10" d="M186.75,114.25"/>
	</g>
</g>
<g>
	<g>
		<path fill="#42C4DC" d="M258.441,108.316c-0.138,0.119-0.27,0.242-0.402,0.368c-0.163,0.155-0.808,0.644-0.053,0.1
			c-0.658,0.474-1.156,0.985-1.379,1.793c-0.213,0.774-0.103,1.619,0.302,2.312c0.768,1.31,2.774,2.033,4.105,1.076
			c0.605-0.436,1.112-0.923,1.67-1.407c1.236-1.073,1.095-3.148,0-4.243C261.467,107.099,259.675,107.245,258.441,108.316
			L258.441,108.316z"/>
	</g>
</g>
<g>
	<g>
		<path fill="#42C4DC" d="M292.869,133.857c-1.1,0.329-2.064,0.82-2.907,1.605c-1.197,1.115-1.125,3.118,0,4.243
			c1.187,1.187,3.047,1.114,4.243,0c0.439-0.409-0.606,0.399-0.095,0.077c0.14-0.088,0.292-0.155,0.442-0.222
			c-0.239,0.101-0.478,0.202-0.717,0.302c0.207-0.083,0.415-0.155,0.628-0.219c1.565-0.469,2.536-2.087,2.095-3.69
			C296.133,134.403,294.435,133.388,292.869,133.857L292.869,133.857z"/>
	</g>
</g>
<g>
	<g>
		<path fill="#42C4DC" d="M316.757,171.181c0.171-0.249,0.101-0.158-0.211,0.271c0.094-0.11,0.204-0.207,0.31-0.304
			c0.183-0.168,0.382-0.319,0.575-0.474c0.565-0.453,0.977-0.941,1.409-1.534c0.966-1.324,0.227-3.341-1.076-4.105
			c-0.693-0.406-1.537-0.515-2.312-0.302c-0.812,0.223-1.314,0.722-1.793,1.379c0.592-0.811,0.081-0.151-0.125,0.033
			c-0.186,0.166-0.385,0.318-0.58,0.474c-0.548,0.44-0.98,0.948-1.378,1.534c-0.919,1.355-0.263,3.32,1.076,4.105
			C314.135,173.126,315.841,172.531,316.757,171.181L316.757,171.181z"/>
	</g>
</g>
<g>
	<g>
		<path fill="#42C4DC" d="M245.625,198c0.153,0.001,0.299,0.008,0.45,0.027c-0.266-0.036-0.532-0.071-0.798-0.107
			c0.105,0.018,0.205,0.051,0.3,0.098c0.704,0.286,1.685,0.065,2.312-0.302c0.671-0.393,1.172-1.043,1.379-1.793
			c0.213-0.774,0.103-1.619-0.302-2.312c-0.43-0.735-1.034-1.07-1.793-1.379c-0.481-0.196-1.03-0.229-1.548-0.232
			c-1.635-0.011-3,1.373-3,3C242.625,196.644,243.99,197.989,245.625,198L245.625,198z"/>
	</g>
</g>
<g>
	<g>
		<path fill="#42C4DC" d="M175.452,187.232c-0.875,0.285-1.859,0.641-2.449,1.397c-0.514,0.659-0.879,1.248-0.879,2.121
			c0,0.792,0.319,1.561,0.879,2.121s1.329,0.879,2.121,0.879c0.71,0,1.662-0.29,2.121-0.879c0.194-0.229,0.086-0.165-0.325,0.192
			c0.106-0.08,0.236-0.131,0.357-0.182c-0.239,0.101-0.478,0.202-0.717,0.302c0.161-0.06,0.323-0.113,0.486-0.166
			c1.553-0.506,2.544-2.059,2.095-3.69C178.724,187.807,177.008,186.726,175.452,187.232L175.452,187.232z"/>
	</g>
</g>
</svg>
