<svg id="flow-ticket" xmlns="http://www.w3.org/2000/svg" viewBox="0 0 500 500">
  <g fill="none" stroke-miterlimit="10">
    <path class="first-path" stroke="" stroke-width="5" d="M374.462 428h-13.895c-6.034 0-10.925-4.892-10.925-10.925s4.89-10.925 10.925-10.925h13.895c10.424 0 18.903-8.48 18.903-18.903V69.357c0-10.205-8.303-18.508-18.508-18.508H127.82c-10.205 0-18.508 8.302-18.508 18.507v317.888c0 10.424 8.48 18.903 18.903 18.903h15.572c2.675 0 4.85-2.175 4.85-4.85v-3.95c0-14.72 11.977-26.7 26.7-26.7h29.626c14.722 0 26.7 11.98 26.7 26.7v3.95c0 2.675 2.177 4.85 4.85 4.85h31.325c2.675 0 4.85-2.175 4.85-4.85v-3.95c0-14.72 11.98-26.7 26.7-26.7h16.588c6.034 0 10.925 4.893 10.925 10.926s-4.89 10.925-10.924 10.925H299.39c-2.675 0-4.85 2.174-4.85 4.85v3.948c0 14.722-11.978 26.7-26.7 26.7h-31.326c-14.722 0-26.7-11.98-26.7-26.7v-3.95c0-2.674-2.177-4.85-4.85-4.85h-29.626c-2.675 0-4.85 2.176-4.85 4.85v3.95c0 14.722-11.977 26.7-26.7 26.7h-15.572c-22.472 0-40.754-18.282-40.754-40.754V69.357C87.462 47.104 105.567 29 127.82 29h247.038c22.254 0 40.357 18.104 40.357 40.357v317.888c0 22.473-18.28 40.755-40.753 40.755z"/>
    <path class="second-path" stroke="" stroke-width="4" d="M256.076 278.848H151.193c-6.034 0-10.925-4.892-10.925-10.925s4.89-10.925 10.925-10.925h104.883c6.034 0 10.925 4.892 10.925 10.925s-4.89 10.925-10.924 10.925z"/>
    <path class="third-path" stroke="" stroke-width="4" d="M256.076 336.16H151.193c-6.034 0-10.925-4.892-10.925-10.925s4.89-10.925 10.925-10.925h104.883c6.034 0 10.925 4.892 10.925 10.925s-4.89 10.925-10.924 10.925z"/>
    <path class="fourth-path" stroke="" stroke-width="4" d="M351.485 278.848H312.16c-6.035 0-10.926-4.892-10.926-10.925s4.89-10.925 10.925-10.925h39.325c6.034 0 10.925 4.892 10.925 10.925s-4.89 10.925-10.925 10.925z"/>
    <path class="fifith-path" stroke="" stroke-width="4" d="M351.485 336.16H312.16c-6.035 0-10.926-4.892-10.926-10.925s4.89-10.925 10.925-10.925h39.325c6.034 0 10.925 4.892 10.925 10.925s-4.89 10.925-10.925 10.925z"/>
  </g>
  <g opacity=".5">
    <path id="cloud" class="first-cloud" fill="#42C4DB" d="M215.177 194.393h13.51c2.604 0 4.716 1.326 4.716 2.96 0 1.636-2.11 2.962-4.717 2.962h-.628c-2.604 0-4.716 1.326-4.716 2.96 0 1.635 2.11 2.96 4.716 2.96H257.1c2.604 0 4.717 1.327 4.717 2.962 0 1.634-2.112 2.96-4.717 2.96H183.84c-2.605 0-4.718-1.326-4.718-2.96 0-1.635 2.112-2.96 4.717-2.96h8.06c2.603 0 4.716-1.327 4.716-2.962 0-1.634-2.112-2.96-4.717-2.96h-38.36c-2.606 0-4.717-1.326-4.717-2.96 0-1.635 2.11-2.962 4.717-2.962h61.636z"/>
    <path id="cloud" class="second-cloud" fill="#41C4DB" stroke="" stroke-miterlimit="10" d="M313.914 191.223c2.973 0 5.385-1.513 5.385-3.38 0-1.866-2.413-3.38-5.386-3.38h-16.502c-2.974 0-5.384 1.514-5.384 3.38 0 1.867 2.41 3.38 5.384 3.38h16.502z"/>
    <path id="cloud" class="third-cloud" fill="#42C4DC" stroke="" stroke-width="6" stroke-linecap="round" stroke-linejoin="round" stroke-miterlimit="10" d="M302.183 90.308h13.51c2.604 0 4.716 1.325 4.716 2.96s-2.112 2.96-4.717 2.96h-.628c-2.605 0-4.717 1.326-4.717 2.96 0 1.636 2.11 2.962 4.717 2.962h29.04c2.606 0 4.718 1.325 4.718 2.96 0 1.636-2.11 2.96-4.717 2.96H270.846c-2.605 0-4.717-1.324-4.717-2.96 0-1.635 2.11-2.96 4.715-2.96h8.06c2.605 0 4.717-1.326 4.717-2.96 0-1.635-2.11-2.962-4.717-2.962h-38.36c-2.604 0-4.717-1.325-4.717-2.96s2.112-2.96 4.717-2.96h61.639z"/>
  </g>
  <g fill="none" stroke="" stroke-width="6" stroke-linecap="round" stroke-linejoin="round" stroke-miterlimit="10">
    <path class="first-dash" d="M237.116 193.126c-1.35-.17-2.432.215-3.49 1.17-6.35 5.72-6.603 14.91-.945 21.26 3.113 3.492 7.15 5.24 11.69 6.117 2.336.45 4.44-.206 6.62-.685 2.452-.54 4.622-1.64 6.614-3.145 4.702-3.55 7.68-8.19 8.77-13.987 1.397-7.44-.555-13.967-5.4-19.736-3.57-4.25-8.006-7.18-13.245-8.85-3.397-1.082-6.906-1.45-10.508-1.252-5.858.322-10.945 2.567-15.717 5.774-9.532 6.405-19.07 12.802-28.63 19.16-.477.317-1.212.245-1.826.353"/>
    <path class="second-dash" d="M182.162 185.05c.36-.09.784-.09 1.075-.284 7.093-4.752 14.175-9.52 21.252-14.296 4.424-2.985 7.686-6.94 9.292-12.04 2.835-9 .21-19.026-7.46-24.58-3.67-2.655-7.82-3.648-12.348-3.17-4.566.485-8.53 2.16-11.47 5.77-2.034 2.497-3.227 5.357-3.285 8.658-.06 3.432.35 5.13 2.458 8.997h2.867"/>
    <path class="third-dash" d="M255.976 147.818c-.968 4.933.428 8.87 4.642 11.84 3.596 2.536 7.514 4.25 11.838 4.697 6.884.714 13.31-.744 18.957-4.95.736-.547 1.396-1.2 2.063-1.836 1.282-1.22 1.714-2.738.947-4.317-.91-1.873-1.874-3.776-3.147-5.407-3.435-4.4-7.882-7.388-13.293-8.926-5.094-1.448-10.16-1.38-15.17.247-3.276 1.063-5.117 3.604-6.29 6.702-.213.564-.365 1.153-.546 1.73"/>
    <path class="fourth-dash" d="M327.19 116.82h-3.168c-6.612 4.423-13.797 9.24-21.554 14.404-.484.322-1.076.48-1.618.716"/>
    <path class="fifith-dash" d="M251.1 118.065c-.687.415-1.39.806-2.058 1.25-6.652 4.438-13.31 8.868-19.932 13.35-.767.518-1.49.808-2.4.746-.683-.046-1.372-.008-2.06-.008"/>
    <path class="sixth-dash" d="M307.028 174.645c-.36.163-.754.278-1.08.495-7.05 4.688-14.094 9.387-21.14 14.084l-1.3.867"/>
    <path class="seventh-dash" d="M276.245 151.178c-3.764.323-7.317-.906-10.942-1.546-4.646-.82-9.25-1.87-13.883-2.77-.842-.165-1.73-.09-2.598-.128"/>
    <path class="eigth-dash" d="M280.147 89.18c.29 4.275-.904 8.345-1.74 12.463-.476 2.354-1.09 4.684-1.49 7.05-.457 2.73-.744 5.488-1.105 8.234"/>
    <path class="nineth-dash" d="M277.383 103.748c4.896 1.142 8.88-.113 12-4.22 2.66-3.502 4.51-7.357 5.112-11.663.958-6.854-.27-13.328-4.274-19.12-.52-.755-1.15-1.438-1.762-2.127-1.174-1.325-2.674-1.81-4.28-1.1-1.904.844-3.84 1.74-5.515 2.955-4.518 3.277-7.663 7.615-9.392 12.968-1.627 5.04-1.74 10.104-.29 15.17.946 3.312 3.42 5.24 6.474 6.523.557.234 1.14.407 1.712.608"/>
  </g>
  <path class="first-dot" fill="#42C4DC" d="M258.44 108.316c-.137.12-.27.242-.4.368-.164.155-.81.644-.054.1-.658.474-1.156.985-1.38 1.793-.212.774-.102 1.62.303 2.312.767 1.31 2.773 2.032 4.104 1.075.605-.436 1.112-.923 1.67-1.407 1.236-1.073 1.095-3.148 0-4.243-1.217-1.216-3.01-1.07-4.243 0z"/>
  <path class="second-dot" fill="#42C4DC" d="M292.87 133.857c-1.1.33-2.065.82-2.908 1.605-1.197 1.115-1.125 3.118 0 4.243 1.187 1.187 3.047 1.114 4.243 0 .44-.41-.606.4-.095.077.14-.088.292-.155.442-.222-.24.1-.478.202-.717.302.207-.083.415-.155.628-.22 1.565-.468 2.536-2.086 2.095-3.69-.425-1.55-2.123-2.564-3.69-2.095z"/>
  <path class="third-dot" fill="#42C4DC" d="M316.757 171.18c.17-.248.1-.157-.21.272.093-.11.203-.207.31-.304.182-.168.38-.32.574-.474.566-.453.978-.94 1.41-1.534.966-1.324.227-3.34-1.076-4.105-.693-.406-1.537-.515-2.312-.302-.812.223-1.314.722-1.793 1.38.59-.812.08-.152-.126.032-.186.166-.385.318-.58.474-.548.44-.98.947-1.378 1.533-.92 1.355-.263 3.32 1.076 4.105 1.483.868 3.19.273 4.105-1.077z"/>
  <path class="fourth-dot" fill="#42C4DC" d="M245.625 198c.153 0 .3.008.45.027-.266-.036-.532-.07-.798-.107.105.018.205.05.3.098.704.286 1.685.065 2.312-.302.67-.393 1.17-1.043 1.378-1.793.213-.774.103-1.62-.302-2.312-.43-.734-1.034-1.07-1.793-1.378-.48-.196-1.03-.23-1.548-.232-1.635-.01-3 1.373-3 3 0 1.644 1.365 2.99 3 3z"/>
  <path class="fifth-dot" fill="#42C4DC" d="M175.452 187.232c-.875.285-1.86.64-2.45 1.397-.513.658-.878 1.247-.878 2.12 0 .792.32 1.56.88 2.12s1.328.88 2.12.88c.71 0 1.662-.29 2.12-.88.195-.228.087-.164-.324.193.106-.08.236-.13.357-.182l-.717.303c.16-.06.323-.113.486-.166 1.553-.506 2.544-2.06 2.095-3.69-.416-1.52-2.132-2.6-3.688-2.095z"/>
</svg>
